<?xml version="1.0" standalone="no"?>
<!DOCTYPE svg PUBLIC "-//W3C//DTD SVG 20010904//EN"
 "http://www.w3.org/TR/2001/REC-SVG-20010904/DTD/svg10.dtd">
<svg version="1.0" xmlns="http://www.w3.org/2000/svg"
 width="1026.000000pt" height="1026.000000pt" viewBox="0 0 1026.000000 1026.000000"
 preserveAspectRatio="xMidYMid meet">
<metadata>
Created by potrace 1.11, written by Peter Selinger 2001-2013
</metadata>
<g transform="translate(0.000000,1026.000000) scale(0.100000,-0.100000)"
fill="#000000" stroke="none">
<path d="M0 5130 l0 -5130 5130 0 5130 0 0 5130 0 5130 -5130 0 -5130 0 0
-5130z m9630 15 l0 -4565 -4500 0 -4500 0 0 4565 0 4565 4500 0 4500 0 0
-4565z"/>
<path d="M1070 5130 l0 -4140 4060 0 4060 0 0 4140 0 4140 -4060 0 -4060 0 0
-4140z m3229 1900 l573 -911 170 253 c94 139 368 549 610 911 l441 657 319 0
c253 0 318 -3 312 -12 -4 -7 -351 -526 -771 -1153 -420 -627 -764 -1144 -764
-1148 -1 -5 358 -578 797 -1275 440 -696 807 -1279 816 -1294 l18 -28 -392 2
-392 3 -623 990 c-343 545 -627 991 -631 992 -4 1 -306 -445 -672 -992 l-664
-995 -318 0 c-175 0 -318 2 -318 4 0 3 253 382 561 842 309 461 683 1019 831
1241 l269 404 -754 1197 c-414 658 -757 1203 -761 1210 -6 9 73 12 381 12
l388 0 574 -910z m3301 840 l0 -30 -130 0 -130 0 0 -90 0 -90 115 0 115 0 0
-30 0 -30 -115 0 -115 0 0 -110 0 -110 140 0 140 0 0 -30 0 -30 -180 0 -180 0
0 290 0 290 170 0 170 0 0 -30z m-253 -1247 l79 -237 81 235 80 234 36 3 36 3
-55 -158 c-30 -87 -75 -218 -100 -291 l-47 -133 -40 3 -40 3 -94 280 c-51 154
-93 283 -93 287 0 5 18 8 39 8 l39 0 79 -237z m253 -833 l0 -30 -130 0 -130 0
0 -90 0 -90 115 0 115 0 0 -30 0 -30 -115 0 -115 0 0 -110 0 -110 140 0 140 0
0 -30 0 -30 -180 0 -180 0 0 290 0 290 170 0 170 0 0 -30z m-173 -1228 l112
-217 1 218 0 217 35 0 35 0 0 -291 0 -290 -41 3 -41 3 -111 215 -112 215 -3
-217 -2 -218 -30 0 -30 0 0 290 0 290 38 0 37 0 112 -218z m223 -852 l0 -30
-95 0 -95 0 0 -260 0 -260 -40 0 -40 0 0 260 0 260 -95 0 -95 0 0 30 0 30 230
0 230 0 0 -30z m-52 -969 c15 -8 22 -21 22 -43 0 -27 -3 -30 -22 -24 -109 31
-184 30 -219 -5 -48 -48 -11 -103 110 -164 48 -24 102 -55 119 -70 85 -71 57
-206 -53 -256 -48 -22 -147 -25 -220 -6 -48 13 -50 15 -53 51 -3 36 -2 38 20
32 148 -43 197 -44 243 -3 14 12 28 36 31 52 8 44 -24 78 -115 125 -42 21 -89
48 -105 58 -94 65 -87 202 14 255 28 15 51 18 121 14 47 -2 95 -10 107 -16z
m-4488 -21 l0 -30 -130 0 -130 0 0 -90 0 -90 115 0 115 0 0 -30 0 -30 -115 0
-115 0 0 -110 0 -110 140 0 140 0 0 -30 0 -30 -180 0 -180 0 0 290 0 290 170
0 170 0 0 -30z m647 -207 l79 -237 81 235 80 234 36 3 36 3 -55 -158 c-30 -87
-75 -218 -100 -291 l-47 -133 -40 3 -40 3 -94 280 c-51 154 -93 283 -93 287 0
5 18 8 39 8 l39 0 79 -237z m1163 207 l0 -30 -130 0 -130 0 0 -90 0 -90 115 0
115 0 0 -30 0 -30 -115 0 -115 0 0 -110 0 -110 140 0 140 0 0 -30 0 -30 -180
0 -180 0 0 290 0 290 170 0 170 0 0 -30z m737 -188 l112 -217 1 218 0 217 35
0 35 0 0 -291 0 -290 -41 3 -41 3 -111 215 -112 215 -3 -217 -2 -218 -30 0
-30 0 0 290 0 290 38 0 37 0 112 -218z m1123 188 l0 -30 -95 0 -95 0 0 -260 0
-260 -40 0 -40 0 0 260 0 260 -95 0 -95 0 0 30 0 30 230 0 230 0 0 -30z"/>
</g>
</svg>
